<svg width="16" height="16" viewBox="0 0 16 16" fill="none" xmlns="http://www.w3.org/2000/svg">
<path fill-rule="evenodd" clip-rule="evenodd" d="M1.27904 6.34059C0.941108 6.60121 0.659502 6.33224 0.560939 6.16517L0.546282 6.13289C0.25025 5.48133 -0.193864 4.50384 0.13853 2.55651C0.476457 0.576762 0.729903 0.551702 1.99713 1.45387C2.47442 1.79366 2.77195 2.12279 3.01384 2.39037C3.41417 2.83323 3.6621 3.1075 4.32038 2.98253C5.37641 2.78205 6.89708 2.85723 7.82638 2.98253C8.43579 3.0647 8.51841 2.94211 8.94383 2.31088C9.16715 1.97953 9.48491 1.50803 10.0229 0.85243C11.5858 -1.05214 12.8531 0.702069 13.3599 1.60423C13.8668 2.5064 14.4582 4.31072 14.7961 5.38831C15.1341 6.46589 14.5004 6.41577 14.078 6.31553C13.9699 6.28986 13.8977 6.27077 13.8027 6.24562C13.5266 6.17257 13.0575 6.04841 10.9522 5.56372C8.12207 4.91216 6.93932 5.28806 5.58761 5.81433C4.56083 6.21408 3.82653 6.09328 3.19957 5.99013C3.00117 5.95749 2.81352 5.92661 2.63075 5.91457C1.89331 5.86596 1.71216 6.00593 1.31654 6.31163C1.30425 6.32112 1.29176 6.33078 1.27904 6.34059ZM9.88759 2.71768C10.3565 1.94844 11.0573 1.06585 11.5858 1.25398C12.214 1.47759 12.4918 2.1723 12.7146 2.9569C12.7507 3.08406 12.2312 3.217 12.0517 3.14422C11.6383 2.97655 11.107 2.89007 10.4739 3.00997C10.1612 3.0692 9.77594 2.90084 9.88759 2.71768ZM2.94344 3.25216C2.44735 2.68254 1.66777 1.94284 1.27778 2.13334C0.837206 2.34855 0.770101 2.91412 0.754489 3.53792C0.752289 3.62583 1.11106 3.67953 1.21319 3.61582C1.538 3.41319 2.02432 3.28052 2.69519 3.40573C2.85178 3.43495 3.01879 3.33867 2.94344 3.25216Z" fill="white"/>
<path d="M8.24878 5.96468C7.20121 5.84439 6.74219 6.39906 6.64363 6.69143C6.55914 6.94203 6.64363 7.31793 8.03758 7.44323C8.80863 7.51254 9.3414 7.3622 9.65262 7.19932C9.87166 7.08468 9.90574 6.89695 9.78057 6.74038C9.53706 6.43577 9.0477 6.05642 8.24878 5.96468Z" fill="white"/>
<path d="M3.24605 7.13716C2.93902 7.25267 2.60066 7.40358 2.33534 7.52881C2.16204 7.6106 1.90324 7.57769 1.83642 7.45243C1.66814 7.13699 1.60056 6.72136 2.12386 6.56613C2.66311 6.40617 3.11273 6.65038 3.36543 6.87868C3.46294 6.96677 3.39608 7.08071 3.24605 7.13716Z" fill="white"/>
<path fill-rule="evenodd" clip-rule="evenodd" d="M4.44709 7.44324C4.12324 7.45159 3.2221 7.59861 2.20832 8.11986C1.66757 8.3979 1.2422 8.53903 0.9125 8.64843C0.469567 8.79539 0.199328 8.88506 0.0540324 9.17239C-0.0922228 9.46161 0.0850517 9.64235 0.26928 9.83018C0.404302 9.96784 0.543059 10.1093 0.560924 10.3001C0.566224 10.3567 0.568199 10.4397 0.570687 10.5443C0.588031 11.2735 0.630314 13.0511 1.99712 14.2345C3.17159 15.2514 4.56222 15.8025 5.21678 15.9834C5.2917 16.0041 5.37574 16.0052 5.45333 15.9883C7.26091 15.5949 11.2433 14.4529 13.6556 12.8061C16.699 10.7285 16.2449 9.16351 15.2579 7.79796C15.2324 7.76263 15.1903 7.73238 15.1348 7.7126C14.7008 7.5581 13.7256 7.31822 12.6841 7.39312C12.0526 7.43853 11.4385 7.61249 10.8064 7.79155C10.0431 8.00778 9.25354 8.23145 8.3755 8.24515C7.60754 8.25714 7.12964 8.0741 6.62262 7.8799C6.06989 7.6682 5.48256 7.44324 4.44709 7.44324ZM0.934458 9.26235C1.20194 9.04812 1.92942 8.80987 2.28278 8.75186L2.51905 8.72095C3.38678 8.62317 4.18561 8.64445 3.97889 9.00167C3.87514 9.18097 3.56214 9.26683 3.25974 9.34978C2.95967 9.43209 2.67003 9.51154 2.6056 9.67658C2.52982 9.8707 2.84143 9.96424 3.09958 10.0417C3.28212 10.0965 3.43793 10.1433 3.41114 10.2119C3.34646 10.3776 2.51214 10.4042 1.88875 10.1202C1.26535 9.83619 0.600106 9.53014 0.934458 9.26235ZM9.79343 9.66858C8.07173 11.0246 6.20226 11.2552 5.21006 11.1893C4.99264 11.1749 4.7659 11.2187 4.65231 11.3296C4.45253 11.5247 4.18056 11.8215 3.96418 12.1495C3.58401 12.7259 3.28832 13.578 4.64003 13.9539C5.66493 14.2389 6.53044 13.4509 6.7619 12.9553C6.78329 12.9095 6.8528 12.8764 6.92711 12.8587C7.48843 12.7245 8.55331 11.8573 9.03307 11.3727C9.55405 10.8965 10.5538 9.88911 10.7227 9.66858L10.7307 9.65825L10.7486 9.63499C11.0206 9.2821 12.1581 7.80613 9.79343 9.66858Z" fill="white"/>
</svg>
